<svg xmlns="http://www.w3.org/2000/svg" viewBox="0 0 720 540"><rect width="720" height="540" fill="#cf9c3d"/><path d="M0 0h720v540H0Z" fill="none" stroke="#34281e" stroke-width="18"/><g transform="translate(360 265)"><g fill="#ead39a" stroke="#433022" stroke-width="7"><path d="m-203-147 115-36 45 75-113 38Z"/><path d="m-84-98 118-34 43 76-115 36Z"/><path d="m39-48 118-34 43 76L83 28Z"/><path d="m-157-51 115-34 45 76-114 37Z"/><path d="M-37 0 81-34l43 76L8 76Z"/><path d="m85 49 118-34 43 76-116 34Z"/><path d="m-112 47 114-35 46 77-115 37Z"/><path d="m10 99 116-35 44 76-115 37Z"/></g><path d="M-202-147 55 177M-88-183l258 323" stroke="#a13a2e" stroke-width="10"/></g><text x="47" y="75" fill="#3e2c1f" font-family="serif" font-size="41" font-weight="700">木片の滝</text><text x="49" y="108" fill="#64462d" font-family="sans-serif" font-size="14" font-weight="700" letter-spacing="5">FALLING BLOCKS</text></svg>
