<svg xmlns="http://www.w3.org/2000/svg" viewBox="0 0 720 420"><rect width="720" height="420" fill="#d8ad69"/><path d="M0 44C190 28 424 65 720 38M0 122C218 105 472 146 720 110M0 238C230 218 480 263 720 230M0 352C210 332 470 374 720 342" fill="none" stroke="#7d4d29" stroke-opacity=".24" stroke-width="6"/><rect x="82" y="62" width="556" height="296" rx="20" fill="#b77b42" stroke="#54311c" stroke-width="12"/><g fill="#68401f" stroke="#e2b66e" stroke-width="4"><rect x="195" y="82" width="22" height="145"/><rect x="195" y="207" width="190" height="22"/><rect x="366" y="126" width="22" height="103"/><rect x="388" y="207" width="22" height="110"/><rect x="245" y="296" width="165" height="22"/><rect x="506" y="172" width="22" height="132"/></g><g fill="#21150d"><circle cx="493" cy="117" r="17"/><circle cx="267" cy="267" r="17"/></g><circle cx="568" cy="309" r="25" fill="#b07b27" stroke="#f3d071" stroke-width="7"/><circle cx="145" cy="112" r="16" fill="#d8e3df" stroke="#3d4a49" stroke-width="7"/><circle cx="139" cy="106" r="5" fill="#fff9de"/><path d="M54 365h612" stroke="#54311c" stroke-width="7"/><text x="360" y="397" text-anchor="middle" fill="#4c2d1d" font-family="serif" font-weight="700" font-size="28">木製・滚珠迷宫</text></svg>